<?xml version="1.0" encoding="UTF-8"?>
<svg id="Layer_1" data-name="Layer 1" xmlns="http://www.w3.org/2000/svg" xmlns:xlink="http://www.w3.org/1999/xlink" viewBox="0 0 403 403.01">
  <defs>
    <style>
      .cls-1 {
        stroke-miterlimit: 10;
      }

      .cls-1, .cls-2 {
        fill: none;
        stroke: #dedfc1;
      }

      .cls-2 {
        stroke-linecap: round;
        stroke-linejoin: round;
        stroke-width: 32px;
      }

      .cls-3 {
        clip-path: url(#clippath);
      }
    </style>
    <clipPath id="clippath">
      <path class="cls-1" d="M201.5,387.01c-51.22,0-97.6-20.76-131.17-54.33-33.57-33.58-54.34-79.95-54.34-131.18s20.75-97.58,54.3-131.14c33.57-33.58,79.96-54.36,131.19-54.36,102.45,0,185.5,83.05,185.5,185.5s-83.05,185.5-185.5,185.5Z"/>
    </clipPath>
  </defs>
  <g id="Nature">
    <path class="cls-2" d="M201.5,387.01c-51.22,0-97.6-20.76-131.17-54.33-33.57-33.58-54.34-79.95-54.34-131.18s20.75-97.58,54.3-131.14c33.57-33.58,79.96-54.36,131.19-54.36,102.45,0,185.5,83.05,185.5,185.5s-83.05,185.5-185.5,185.5Z"/>
    <polyline class="cls-2" points="21.94 248.18 90.01 177.5 141.78 213.36 233.23 83.96 377.41 260.46"/>
    <line class="cls-2" x1="233.23" y1="83.96" x2="121.79" y2="241.65"/>
    <path class="cls-2" d="M169.67,175.84c27.34,0,31.83,26.06,62.34,25.66,37.94-.49,22.85-38.14,64.4-37.07"/>
    <g>
      <g class="cls-3">
        <circle class="cls-2" cx="92.74" cy="64.22" r="43.74"/>
      </g>
      <path class="cls-1" d="M201.5,387.01c-51.22,0-97.6-20.76-131.17-54.33-33.57-33.58-54.34-79.95-54.34-131.18s20.75-97.58,54.3-131.14c33.57-33.58,79.96-54.36,131.19-54.36,102.45,0,185.5,83.05,185.5,185.5s-83.05,185.5-185.5,185.5Z"/>
    </g>
  </g>
</svg>